     Hysteria.2011.SWESUB.DVDRiP.XViD.AC-3(5.1).avi-Zen_Bud

Format                                   : AVI
File size                                : 1.37 GiB
Duration                                 : 1h 35mn
Overall bit rate                         : 2 056 Kbps

Video
ID                                       : 0
Format                                   : MPEG-4 Visual
Codec ID                                 : XVID
Duration                                 : 1h 35mn
Source duration                          : 1h 35mn
Bit rate                                 : 1 661 Kbps
Width                                    : 720 pixels
Height                                   : 440 pixels
Display aspect ratio                     : 2.35:1
Frame rate                               : 25.000 fps
Color space                              : YUV
Chroma subsampling                       : 4:2:0
Bit depth                                : 8 bits
Scan type                                : Progressive
Compression mode                         : Lossy
Bits/(Pixel*Frame)                       : 0.210
Stream size                              : 1.10 GiB (81%)
Writing library                          : XviD 1.1.2 (UTC 2006-11-01)

Audio
ID                                       : 1
Format                                   : AC-3
Mode extension                           : CM (complete main)
Format settings, Endianness              : Big
Codec ID                                 : 2000
Duration                                 : 1h 35mn
Source duration                          : 1h 35mn
Bit rate mode                            : Constant
Bit rate                                 : 384 Kbps
Channel(s)                               : 6 channels
Channel positions                        : Front: L C R, Side: L R, LFE
Sampling rate                            : 48.0 KHz
Bit depth                                : 16 bits
Compression mode                         : Lossy
Stream size                              : 261 MiB (19%)


